<?xml version="1.0" standalone="no"?>
<!DOCTYPE svg PUBLIC "-//W3C//DTD SVG 20010904//EN" "http://www.w3.org/TR/2001/REC-SVG-20010904/DTD/svg10.dtd">
<!-- Created using Krita: https://krita.org -->
<svg xmlns="http://www.w3.org/2000/svg" 
    xmlns:xlink="http://www.w3.org/1999/xlink"
    xmlns:krita="http://krita.org/namespaces/svg/krita"
    xmlns:sodipodi="http://sodipodi.sourceforge.net/DTD/sodipodi-0.dtd"
    width="737.28pt"
    height="737.28pt"
    viewBox="0 0 737.28 737.28">
<defs/>
<path id="shape0" fill="#ffffff" fill-rule="evenodd" stroke="#ffffff" stroke-width="1.476" stroke-linecap="square" stroke-linejoin="bevel" d="M648.18 347.398L648.086 342.968L647.805 338.567L647.339 334.196L646.691 329.855L645.863 325.546L644.857 321.271L643.676 317.031L642.322 312.828L640.797 308.662L639.104 304.536L637.244 300.45L635.221 296.407L633.036 292.406L630.691 288.451L628.19 284.542L625.534 280.68L622.726 276.867L619.767 273.104L616.661 269.394L613.409 265.736L610.015 262.133L606.479 258.586L602.805 255.096L598.994 251.665L595.05 248.294L590.974 244.984L586.768 241.738L582.436 238.555L577.978 235.438L573.399 232.389L568.699 229.407L563.881 226.496L558.948 223.656L553.901 220.888L548.744 218.194L543.478 215.576L538.106 213.035L532.629 210.571L527.051 208.187L521.373 205.885L515.599 203.664L509.729 201.528L503.767 199.476L497.715 197.511L491.575 195.634L485.349 193.846L479.04 192.149L472.649 190.544L466.181 189.032L459.635 187.615L453.016 186.295L446.325 185.072L439.564 183.948L432.736 182.925L425.843 182.003L418.888 181.185L411.872 180.471L404.798 179.863L397.669 179.363L390.486 178.971L383.252 178.69L375.969 178.52L368.64 178.463L361.311 178.52L354.028 178.69L346.794 178.971L339.611 179.363L332.482 179.863L325.408 180.471L318.392 181.185L311.437 182.003L304.544 182.925L297.716 183.948L290.955 185.072L284.264 186.295L277.645 187.615L271.099 189.032L264.631 190.544L258.24 192.149L251.931 193.846L245.705 195.634L239.565 197.511L233.513 199.476L227.551 201.528L221.681 203.664L215.907 205.885L210.229 208.187L204.651 210.571L199.174 213.035L193.802 215.576L188.536 218.194L183.379 220.888L178.332 223.656L173.399 226.496L168.581 229.407L163.881 232.389L159.302 235.438L154.844 238.555L150.512 241.738L146.306 244.984L142.23 248.294L138.286 251.665L134.475 255.096L130.801 258.586L127.265 262.133L123.871 265.736L120.619 269.394L117.513 273.104L114.554 276.867L111.746 280.68L109.09 284.542L106.589 288.451L104.244 292.406L102.059 296.407L100.036 300.45L98.1763 304.536L96.4829 308.662L94.9579 312.828L93.6038 317.031L92.4227 321.271L91.417 325.546L90.589 329.855L89.941 334.196L89.4753 338.567L89.1942 342.968L89.1 347.398L89.1942 351.827L89.4753 356.228L89.941 360.6L90.589 364.941L91.417 369.249L92.4227 373.524L93.6038 377.764L94.9579 381.967L96.4829 386.133L98.1763 390.259L100.036 394.345L102.059 398.389L104.244 402.389L106.589 406.344L109.09 410.254L111.746 414.116L114.554 417.928L117.513 421.691L120.619 425.402L123.871 429.059L127.265 432.662L130.801 436.209L134.475 439.699L138.286 443.13L142.23 446.501L146.306 449.811L150.512 453.058L154.844 456.24L159.302 459.357L163.881 462.407L168.581 465.388L173.399 468.299L178.332 471.14L183.379 473.907L188.536 476.601L193.802 479.219L199.174 481.761L204.651 484.224L210.229 486.608L215.907 488.911L221.681 491.131L227.551 493.268L233.513 495.319L239.565 497.284L245.705 499.162L251.931 500.949L258.24 502.647L264.631 504.252L271.099 505.763L277.645 507.18L284.264 508.501L290.955 509.723L297.716 510.847L304.544 511.871L311.437 512.792L318.392 513.611L325.408 514.324L332.482 514.932L339.611 515.432L346.794 515.824L354.028 516.105L361.311 516.275L368.64 516.332L375.969 516.275L383.252 516.105L390.486 515.824L397.669 515.432L404.798 514.932L411.872 514.324L418.888 513.611L425.843 512.792L432.736 511.871L439.564 510.847L446.325 509.723L453.016 508.501L459.635 507.18L466.181 505.763L472.649 504.252L479.04 502.647L485.349 500.949L491.575 499.162L497.715 497.284L503.767 495.319L509.729 493.268L515.599 491.131L521.373 488.911L527.051 486.608L532.629 484.224L538.106 481.761L543.478 479.219L548.744 476.601L553.901 473.907L558.948 471.14L563.881 468.299L568.699 465.388L573.399 462.407L577.978 459.357L582.436 456.24L586.768 453.058L590.974 449.811L595.05 446.501L598.994 443.13L602.805 439.699L606.479 436.209L610.015 432.662L613.409 429.059L616.661 425.402L619.767 421.691L622.726 417.928L625.534 414.116L628.19 410.254L630.691 406.344L633.036 402.389L635.221 398.389L637.244 394.345L639.104 390.259L640.797 386.133L642.322 381.967L643.676 377.764L644.857 373.524L645.863 369.249L646.691 364.941L647.339 360.6L647.805 356.228L648.086 351.827L648.18 347.398M125.013 444.84L125.223 445.351L126.896 449.028L128.717 452.668L130.684 456.268L132.794 459.828L135.045 463.346L137.435 466.822L139.963 470.253L142.626 473.64L145.421 476.979L148.348 480.271L151.403 483.514L154.585 486.706L157.892 489.847L161.321 492.935L164.871 495.969L168.54 498.948L172.325 501.87L176.224 504.734L180.235 507.539L184.357 510.284L188.587 512.967L192.923 515.587L197.363 518.144L201.905 520.635L206.546 523.059L211.286 525.415L216.121 527.703L221.05 529.92L226.07 532.065L231.18 534.137L236.377 536.136L241.66 538.059L247.026 539.905L252.473 541.674L257.999 543.363L263.602 544.972L269.28 546.5L275.032 547.944L280.853 549.305L286.744 550.58L292.702 551.768L298.724 552.869L304.808 553.88L310.954 554.801L317.157 555.631L323.417 556.367L329.731 557.01L336.098 557.557L342.514 558.007L348.979 558.36L355.489 558.613L362.044 558.766L368.64 558.817L375.236 558.766L381.791 558.613L388.301 558.36L394.766 558.007L401.182 557.557L407.549 557.01L413.863 556.367L420.123 555.631L426.326 554.801L432.472 553.88L438.556 552.869L444.578 551.768L450.536 550.58L456.427 549.305L462.248 547.944L468 546.5L473.678 544.972L479.281 543.363L484.807 541.674L490.254 539.905L495.62 538.059L500.903 536.136L506.1 534.137L511.21 532.065L516.23 529.92L521.159 527.703L525.994 525.415L530.734 523.059L535.375 520.635L539.917 518.144L544.357 515.587L548.693 512.967L552.923 510.284L557.045 507.539L561.056 504.734L564.955 501.87L568.74 498.948L572.409 495.969L575.959 492.935L579.388 489.847L582.695 486.706L585.877 483.514L588.932 480.271L591.859 476.979L594.654 473.64L597.317 470.253L599.845 466.822L602.235 463.346L604.486 459.828L606.596 456.268L608.563 452.668L610.384 449.028L612.057 445.351L612.267 444.84L610.756 446.328L606.816 450.005L602.738 453.618L598.523 457.166L594.175 460.645L589.695 464.056L585.087 467.397L580.351 470.666L575.492 473.861L570.511 476.982L565.41 480.026L560.192 482.992L554.86 485.879L549.415 488.686L543.86 491.41L538.198 494.05L532.43 496.605L526.56 499.073L520.589 501.453L514.52 503.743L508.355 505.942L502.098 508.048L495.749 510.06L489.312 511.976L482.788 513.796L476.181 515.516L469.493 517.136L462.725 518.655L455.881 520.07L448.962 521.381L441.972 522.585L434.912 523.682L427.785 524.67L420.594 525.547L413.34 526.312L406.026 526.963L398.654 527.5L391.228 527.919L383.748 528.221L376.218 528.403L368.64 528.464L361.062 528.403L353.532 528.221L346.052 527.919L338.626 527.5L331.254 526.963L323.94 526.312L316.686 525.547L309.495 524.67L302.368 523.682L295.308 522.585L288.318 521.381L281.399 520.07L274.555 518.655L267.787 517.136L261.099 515.516L254.492 513.796L247.968 511.976L241.531 510.06L235.182 508.048L228.925 505.942L222.76 503.743L216.691 501.453L210.72 499.073L204.85 496.605L199.082 494.05L193.42 491.41L187.865 488.686L182.42 485.879L177.088 482.992L171.87 480.026L166.769 476.982L161.788 473.861L156.929 470.666L152.193 467.397L147.585 464.056L143.105 460.645L138.757 457.166L134.542 453.618L130.464 450.005L126.524 446.328L125.013 444.84M578.295 372.672L578.224 369.837L578.013 367.021L577.664 364.223L577.178 361.445L576.557 358.687L575.803 355.951L574.917 353.238L573.902 350.548L572.758 347.882L571.488 345.241L570.093 342.626L568.575 340.038L566.937 337.478L565.178 334.946L563.302 332.444L561.31 329.973L559.204 327.532L556.985 325.124L554.656 322.75L552.217 320.409L549.671 318.103L547.019 315.833L544.264 313.599L541.406 311.403L538.447 309.246L535.39 307.128L532.236 305.05L528.987 303.013L525.644 301.018L522.209 299.066L518.684 297.158L515.071 295.295L511.371 293.477L507.586 291.706L503.718 289.982L499.769 288.306L495.739 286.68L491.632 285.103L487.448 283.578L483.19 282.104L478.859 280.683L474.457 279.315L469.985 278.002L465.446 276.745L460.841 275.543L456.172 274.399L451.44 273.313L446.647 272.286L441.795 271.318L436.886 270.411L431.922 269.566L426.903 268.784L421.833 268.064L416.712 267.409L411.542 266.82L406.326 266.296L401.064 265.839L395.759 265.45L390.412 265.13L385.024 264.879L379.599 264.699L374.137 264.59L368.64 264.554L363.143 264.59L357.681 264.699L352.256 264.879L346.868 265.13L341.521 265.45L336.216 265.839L330.954 266.296L325.738 266.82L320.568 267.409L315.447 268.064L310.377 268.784L305.358 269.566L300.394 270.411L295.485 271.318L290.633 272.286L285.84 273.313L281.108 274.399L276.439 275.543L271.834 276.745L267.295 278.002L262.823 279.315L258.421 280.683L254.09 282.104L249.832 283.578L245.648 285.103L241.541 286.68L237.511 288.306L233.562 289.982L229.694 291.706L225.909 293.477L222.209 295.295L218.596 297.158L215.071 299.066L211.636 301.018L208.293 303.013L205.044 305.05L201.89 307.128L198.833 309.246L195.874 311.403L193.016 313.599L190.261 315.833L187.609 318.103L185.063 320.409L182.624 322.75L180.295 325.124L178.076 327.532L175.97 329.973L173.978 332.444L172.102 334.946L170.343 337.478L168.705 340.038L167.187 342.626L165.792 345.241L164.522 347.882L163.378 350.548L162.363 353.238L161.477 355.951L160.723 358.687L160.102 361.445L159.616 364.223L159.267 367.021L159.056 369.837L158.985 372.672L159.056 375.507L159.267 378.324L159.616 381.121L160.102 383.9L160.723 386.657L161.477 389.393L162.363 392.107L163.378 394.797L164.522 397.463L165.792 400.103L167.187 402.718L168.705 405.306L170.343 407.867L172.102 410.398L173.978 412.9L175.97 415.372L178.076 417.812L180.295 420.22L182.624 422.595L185.063 424.935L187.609 427.241L190.261 429.512L193.016 431.745L195.874 433.941L198.833 436.099L201.89 438.217L205.044 440.295L208.293 442.331L211.636 444.326L215.071 446.278L218.596 448.186L222.209 450.049L225.909 451.867L229.694 453.638L233.562 455.362L237.511 457.038L241.541 458.664L245.648 460.241L249.832 461.767L254.09 463.24L258.421 464.661L262.823 466.029L267.295 467.342L271.834 468.6L276.439 469.801L281.108 470.945L285.84 472.031L290.633 473.059L295.485 474.026L300.394 474.933L305.358 475.778L310.377 476.561L315.447 477.28L320.568 477.935L325.738 478.525L330.954 479.048L336.216 479.505L341.521 479.894L346.868 480.214L352.256 480.465L357.681 480.645L363.143 480.754L368.64 480.79L374.137 480.754L379.599 480.645L385.024 480.465L390.412 480.214L395.759 479.894L401.064 479.505L406.326 479.048L411.542 478.525L416.712 477.935L421.833 477.28L426.903 476.561L431.922 475.778L436.886 474.933L441.795 474.026L446.647 473.059L451.44 472.031L456.172 470.945L460.841 469.801L465.446 468.6L469.985 467.342L474.457 466.029L478.859 464.661L483.19 463.24L487.448 461.767L491.632 460.241L495.739 458.664L499.769 457.038L503.718 455.362L507.586 453.638L511.371 451.867L515.071 450.049L518.684 448.186L522.209 446.278L525.644 444.326L528.987 442.331L532.236 440.295L535.39 438.217L538.447 436.099L541.406 433.941L544.264 431.745L547.019 429.512L549.671 427.241L552.217 424.935L554.656 422.595L556.985 420.22L559.204 417.812L561.31 415.372L563.302 412.9L565.178 410.398L566.937 407.867L568.575 405.306L570.093 402.718L571.488 400.103L572.758 397.463L573.902 394.797L574.917 392.107L575.803 389.393L576.557 386.657L577.178 383.9L577.664 381.121L578.013 378.324L578.224 375.507L578.295 372.672" sodipodi:nodetypes="ccccccccccccccccccccccccccccccccccccccccccccccccccccccccccccccccccccccccccccccccccccccccccccccccccccccccccccccccccccccccccccccccccccccccccccccccccccccccccccccccccccccccccccccccccccccccccccccccccccccccccccccccccccccccccccccccccccccccccccccccccccccccccccccccccccccccccccccccccccccccccccccccccccccccccccccccccccccccccccccccccccccccccccccccccccccccccccccccccccccccccccccccccccccccccccccccccccccccccccccccccccccccccccccccccccccccccccccccccccccccccccccccccccccccccccccccccccccccccccccccccccccccccccccccccccccccccccccccccccccccccccccccccccccccccccccccccccccccccccccccccccccccccccccccccccccccccccccccccccccccccccccccccccccccccccccccccccccccccccccccccccccccccccccccccccccccccccccccccccccccccccccccccccccccc"/><path id="shape1" transform="translate(610.559973703806, 194.769591796358)" fill="#ff9f00" d="M0 29.3568L4.76859e-06 0" sodipodi:nodetypes="cc"/><path id="shape2" transform="translate(-28.6703999213856, 131.231994272988)" fill="#ff9f00" d="M0.5184 30L0 30.2304L2.08846e-06 0.2304L0.518402 0" sodipodi:nodetypes="cccc"/><ellipse id="shape01" transform="matrix(1.31833609284692 0 0 1.68496547316534 176.288399703922 285.799599552171)" rx="151.639328608758" ry="57.9836213595891" cx="151.639328608758" cy="57.9836213595891" fill="#ffffff" stroke="none" stroke-width="5.76" stroke-linecap="square" stroke-linejoin="bevel"/><path id="shape3" transform="matrix(-0.571670459778992 0.820483324276671 -0.820483324276671 -0.571670459778992 592.291344102989 383.930117187498)" fill="#ff9f00" fill-rule="evenodd" stroke="#ff9f00" stroke-width="5.04" stroke-linecap="square" stroke-linejoin="bevel" d="M0.72 0L51.12 20.16L0 37.44Z" sodipodi:nodetypes="cccc"/><rect id="shape4" fill="#f69806" fill-rule="evenodd" stroke="#f69806" stroke-width="5.04" stroke-linecap="square" stroke-linejoin="bevel" width="737.28" height="737.28"/><path id="shape5" fill="#ffffff" fill-rule="evenodd" stroke="#ffffff" stroke-width="1.476" stroke-linecap="square" stroke-linejoin="bevel" d="M648.18 347.398L648.086 342.968L647.805 338.567L647.339 334.196L646.691 329.855L645.863 325.546L644.857 321.271L643.676 317.031L642.322 312.828L640.797 308.662L639.104 304.536L637.244 300.45L635.221 296.407L633.036 292.406L630.691 288.451L628.19 284.542L625.534 280.68L622.726 276.867L619.767 273.104L616.661 269.394L613.409 265.736L610.015 262.133L606.479 258.586L602.805 255.096L598.994 251.665L595.05 248.294L590.974 244.984L586.768 241.738L582.436 238.555L577.978 235.438L573.399 232.389L568.699 229.407L563.881 226.496L558.948 223.656L553.901 220.888L548.744 218.194L543.478 215.576L538.106 213.035L532.629 210.571L527.051 208.187L521.373 205.885L515.599 203.664L509.729 201.528L503.767 199.476L497.715 197.511L491.575 195.634L485.349 193.846L479.04 192.149L472.649 190.544L466.181 189.032L459.635 187.615L453.016 186.295L446.325 185.072L439.564 183.948L432.736 182.925L425.843 182.003L418.888 181.185L411.872 180.471L404.798 179.863L397.669 179.363L390.486 178.971L383.252 178.69L375.969 178.52L368.64 178.463L361.311 178.52L354.028 178.69L346.794 178.971L339.611 179.363L332.482 179.863L325.408 180.471L318.392 181.185L311.437 182.003L304.544 182.925L297.716 183.948L290.955 185.072L284.264 186.295L277.645 187.615L271.099 189.032L264.631 190.544L258.24 192.149L251.931 193.846L245.705 195.634L239.565 197.511L233.513 199.476L227.551 201.528L221.681 203.664L215.907 205.885L210.229 208.187L204.651 210.571L199.174 213.035L193.802 215.576L188.536 218.194L183.379 220.888L178.332 223.656L173.399 226.496L168.581 229.407L163.881 232.389L159.302 235.438L154.844 238.555L150.512 241.738L146.306 244.984L142.23 248.294L138.286 251.665L134.475 255.096L130.801 258.586L127.265 262.133L123.871 265.736L120.619 269.394L117.513 273.104L114.554 276.867L111.746 280.68L109.09 284.542L106.589 288.451L104.244 292.406L102.059 296.407L100.036 300.45L98.1763 304.536L96.4829 308.662L94.9579 312.828L93.6038 317.031L92.4227 321.271L91.417 325.546L90.589 329.855L89.941 334.196L89.4753 338.567L89.1942 342.968L89.1 347.398L89.1942 351.827L89.4753 356.228L89.941 360.6L90.589 364.941L91.417 369.249L92.4227 373.524L93.6038 377.764L94.9579 381.967L96.4829 386.133L98.1763 390.259L100.036 394.345L102.059 398.389L104.244 402.389L106.589 406.344L109.09 410.254L111.746 414.116L114.554 417.928L117.513 421.691L120.619 425.402L123.871 429.059L127.265 432.662L130.801 436.209L134.475 439.699L138.286 443.13L142.23 446.501L146.306 449.811L150.512 453.058L154.844 456.24L159.302 459.357L163.881 462.407L168.581 465.388L173.399 468.299L178.332 471.14L183.379 473.907L188.536 476.601L193.802 479.219L199.174 481.761L204.651 484.224L210.229 486.608L215.907 488.911L221.681 491.131L227.551 493.268L233.513 495.319L239.565 497.284L245.705 499.162L251.931 500.949L258.24 502.647L264.631 504.252L271.099 505.763L277.645 507.18L284.264 508.501L290.955 509.723L297.716 510.847L304.544 511.871L311.437 512.792L318.392 513.611L325.408 514.324L332.482 514.932L339.611 515.432L346.794 515.824L354.028 516.105L361.311 516.275L368.64 516.332L375.969 516.275L383.252 516.105L390.486 515.824L397.669 515.432L404.798 514.932L411.872 514.324L418.888 513.611L425.843 512.792L432.736 511.871L439.564 510.847L446.325 509.723L453.016 508.501L459.635 507.18L466.181 505.763L472.649 504.252L479.04 502.647L485.349 500.949L491.575 499.162L497.715 497.284L503.767 495.319L509.729 493.268L515.599 491.131L521.373 488.911L527.051 486.608L532.629 484.224L538.106 481.761L543.478 479.219L548.744 476.601L553.901 473.907L558.948 471.14L563.881 468.299L568.699 465.388L573.399 462.407L577.978 459.357L582.436 456.24L586.768 453.058L590.974 449.811L595.05 446.501L598.994 443.13L602.805 439.699L606.479 436.209L610.015 432.662L613.409 429.059L616.661 425.402L619.767 421.691L622.726 417.928L625.534 414.116L628.19 410.254L630.691 406.344L633.036 402.389L635.221 398.389L637.244 394.345L639.104 390.259L640.797 386.133L642.322 381.967L643.676 377.764L644.857 373.524L645.863 369.249L646.691 364.941L647.339 360.6L647.805 356.228L648.086 351.827L648.18 347.398M125.013 444.84L125.223 445.351L126.896 449.028L128.717 452.668L130.684 456.268L132.794 459.828L135.045 463.346L137.435 466.822L139.963 470.253L142.626 473.64L145.421 476.979L148.348 480.271L151.403 483.514L154.585 486.706L157.892 489.847L161.321 492.935L164.871 495.969L168.54 498.948L172.325 501.87L176.224 504.734L180.235 507.539L184.357 510.284L188.587 512.967L192.923 515.587L197.363 518.144L201.905 520.635L206.546 523.059L211.286 525.415L216.121 527.703L221.05 529.92L226.07 532.065L231.18 534.137L236.377 536.136L241.66 538.059L247.026 539.905L252.473 541.674L257.999 543.363L263.602 544.972L269.28 546.5L275.032 547.944L280.853 549.305L286.744 550.58L292.702 551.768L298.724 552.869L304.808 553.88L310.954 554.801L317.157 555.631L323.417 556.367L329.731 557.01L336.098 557.557L342.514 558.007L348.979 558.36L355.489 558.613L362.044 558.766L368.64 558.817L375.236 558.766L381.791 558.613L388.301 558.36L394.766 558.007L401.182 557.557L407.549 557.01L413.863 556.367L420.123 555.631L426.326 554.801L432.472 553.88L438.556 552.869L444.578 551.768L450.536 550.58L456.427 549.305L462.248 547.944L468 546.5L473.678 544.972L479.281 543.363L484.807 541.674L490.254 539.905L495.62 538.059L500.903 536.136L506.1 534.137L511.21 532.065L516.23 529.92L521.159 527.703L525.994 525.415L530.734 523.059L535.375 520.635L539.917 518.144L544.357 515.587L548.693 512.967L552.923 510.284L557.045 507.539L561.056 504.734L564.955 501.87L568.74 498.948L572.409 495.969L575.959 492.935L579.388 489.847L582.695 486.706L585.877 483.514L588.932 480.271L591.859 476.979L594.654 473.64L597.317 470.253L599.845 466.822L602.235 463.346L604.486 459.828L606.596 456.268L608.563 452.668L610.384 449.028L612.057 445.351L612.267 444.84L610.756 446.328L606.816 450.005L602.738 453.618L598.523 457.166L594.175 460.645L589.695 464.056L585.087 467.397L580.351 470.666L575.492 473.861L570.511 476.982L565.41 480.026L560.192 482.992L554.86 485.879L549.415 488.686L543.86 491.41L538.198 494.05L532.43 496.605L526.56 499.073L520.589 501.453L514.52 503.743L508.355 505.942L502.098 508.048L495.749 510.06L489.312 511.976L482.788 513.796L476.181 515.516L469.493 517.136L462.725 518.655L455.881 520.07L448.962 521.381L441.972 522.585L434.912 523.682L427.785 524.67L420.594 525.547L413.34 526.312L406.026 526.963L398.654 527.5L391.228 527.919L383.748 528.221L376.218 528.403L368.64 528.464L361.062 528.403L353.532 528.221L346.052 527.919L338.626 527.5L331.254 526.963L323.94 526.312L316.686 525.547L309.495 524.67L302.368 523.682L295.308 522.585L288.318 521.381L281.399 520.07L274.555 518.655L267.787 517.136L261.099 515.516L254.492 513.796L247.968 511.976L241.531 510.06L235.182 508.048L228.925 505.942L222.76 503.743L216.691 501.453L210.72 499.073L204.85 496.605L199.082 494.05L193.42 491.41L187.865 488.686L182.42 485.879L177.088 482.992L171.87 480.026L166.769 476.982L161.788 473.861L156.929 470.666L152.193 467.397L147.585 464.056L143.105 460.645L138.757 457.166L134.542 453.618L130.464 450.005L126.524 446.328L125.013 444.84M578.295 372.672L578.224 369.837L578.013 367.021L577.664 364.223L577.178 361.445L576.557 358.687L575.803 355.951L574.917 353.238L573.902 350.548L572.758 347.882L571.488 345.241L570.093 342.626L568.575 340.038L566.937 337.478L565.178 334.946L563.302 332.444L561.31 329.973L559.204 327.532L556.985 325.124L554.656 322.75L552.217 320.409L549.671 318.103L547.019 315.833L544.264 313.599L541.406 311.403L538.447 309.246L535.39 307.128L532.236 305.05L528.987 303.013L525.644 301.018L522.209 299.066L518.684 297.158L515.071 295.295L511.371 293.477L507.586 291.706L503.718 289.982L499.769 288.306L495.739 286.68L491.632 285.103L487.448 283.578L483.19 282.104L478.859 280.683L474.457 279.315L469.985 278.002L465.446 276.745L460.841 275.543L456.172 274.399L451.44 273.313L446.647 272.286L441.795 271.318L436.886 270.411L431.922 269.566L426.903 268.784L421.833 268.064L416.712 267.409L411.542 266.82L406.326 266.296L401.064 265.839L395.759 265.45L390.412 265.13L385.024 264.879L379.599 264.699L374.137 264.59L368.64 264.554L363.143 264.59L357.681 264.699L352.256 264.879L346.868 265.13L341.521 265.45L336.216 265.839L330.954 266.296L325.738 266.82L320.568 267.409L315.447 268.064L310.377 268.784L305.358 269.566L300.394 270.411L295.485 271.318L290.633 272.286L285.84 273.313L281.108 274.399L276.439 275.543L271.834 276.745L267.295 278.002L262.823 279.315L258.421 280.683L254.09 282.104L249.832 283.578L245.648 285.103L241.541 286.68L237.511 288.306L233.562 289.982L229.694 291.706L225.909 293.477L222.209 295.295L218.596 297.158L215.071 299.066L211.636 301.018L208.293 303.013L205.044 305.05L201.89 307.128L198.833 309.246L195.874 311.403L193.016 313.599L190.261 315.833L187.609 318.103L185.063 320.409L182.624 322.75L180.295 325.124L178.076 327.532L175.97 329.973L173.978 332.444L172.102 334.946L170.343 337.478L168.705 340.038L167.187 342.626L165.792 345.241L164.522 347.882L163.378 350.548L162.363 353.238L161.477 355.951L160.723 358.687L160.102 361.445L159.616 364.223L159.267 367.021L159.056 369.837L158.985 372.672L159.056 375.507L159.267 378.324L159.616 381.121L160.102 383.9L160.723 386.657L161.477 389.393L162.363 392.107L163.378 394.797L164.522 397.463L165.792 400.103L167.187 402.718L168.705 405.306L170.343 407.867L172.102 410.398L173.978 412.9L175.97 415.372L178.076 417.812L180.295 420.22L182.624 422.595L185.063 424.935L187.609 427.241L190.261 429.512L193.016 431.745L195.874 433.941L198.833 436.099L201.89 438.217L205.044 440.295L208.293 442.331L211.636 444.326L215.071 446.278L218.596 448.186L222.209 450.049L225.909 451.867L229.694 453.638L233.562 455.362L237.511 457.038L241.541 458.664L245.648 460.241L249.832 461.767L254.09 463.24L258.421 464.661L262.823 466.029L267.295 467.342L271.834 468.6L276.439 469.801L281.108 470.945L285.84 472.031L290.633 473.059L295.485 474.026L300.394 474.933L305.358 475.778L310.377 476.561L315.447 477.28L320.568 477.935L325.738 478.525L330.954 479.048L336.216 479.505L341.521 479.894L346.868 480.214L352.256 480.465L357.681 480.645L363.143 480.754L368.64 480.79L374.137 480.754L379.599 480.645L385.024 480.465L390.412 480.214L395.759 479.894L401.064 479.505L406.326 479.048L411.542 478.525L416.712 477.935L421.833 477.28L426.903 476.561L431.922 475.778L436.886 474.933L441.795 474.026L446.647 473.059L451.44 472.031L456.172 470.945L460.841 469.801L465.446 468.6L469.985 467.342L474.457 466.029L478.859 464.661L483.19 463.24L487.448 461.767L491.632 460.241L495.739 458.664L499.769 457.038L503.718 455.362L507.586 453.638L511.371 451.867L515.071 450.049L518.684 448.186L522.209 446.278L525.644 444.326L528.987 442.331L532.236 440.295L535.39 438.217L538.447 436.099L541.406 433.941L544.264 431.745L547.019 429.512L549.671 427.241L552.217 424.935L554.656 422.595L556.985 420.22L559.204 417.812L561.31 415.372L563.302 412.9L565.178 410.398L566.937 407.867L568.575 405.306L570.093 402.718L571.488 400.103L572.758 397.463L573.902 394.797L574.917 392.107L575.803 389.393L576.557 386.657L577.178 383.9L577.664 381.121L578.013 378.324L578.224 375.507L578.295 372.672" sodipodi:nodetypes="ccccccccccccccccccccccccccccccccccccccccccccccccccccccccccccccccccccccccccccccccccccccccccccccccccccccccccccccccccccccccccccccccccccccccccccccccccccccccccccccccccccccccccccccccccccccccccccccccccccccccccccccccccccccccccccccccccccccccccccccccccccccccccccccccccccccccccccccccccccccccccccccccccccccccccccccccccccccccccccccccccccccccccccccccccccccccccccccccccccccccccccccccccccccccccccccccccccccccccccccccccccccccccccccccccccccccccccccccccccccccccccccccccccccccccccccccccccccccccccccccccccccccccccccccccccccccccccccccccccccccccccccccccccccccccccccccccccccccccccccccccccccccccccccccccccccccccccccccccccccccccccccccccccccccccccccccccccccccccccccccccccccccccccccccccccccccccccccccccccccccccccccccccccccccc"/><path id="shape6" transform="translate(610.559973703806, 194.769591796358)" fill="#ff9f00" d="M0 29.3568L4.76859e-06 0" sodipodi:nodetypes="cc"/><path id="shape7" transform="translate(-28.6703999213856, 131.231994272988)" fill="#ff9f00" d="M0.5184 30L0 30.2304L2.08846e-06 0.2304L0.518402 0" sodipodi:nodetypes="cccc"/><ellipse id="shape02" transform="matrix(1.31833609284692 0 0 1.68496547316534 176.288399703922 285.799599552171)" rx="151.639328608758" ry="57.9836213595891" cx="151.639328608758" cy="57.9836213595891" fill="#ffffff" stroke="none" stroke-width="5.76" stroke-linecap="square" stroke-linejoin="bevel"/><path id="shape8" transform="matrix(-0.571670459778992 0.820483324276671 -0.820483324276671 -0.571670459778992 592.291344102989 383.930117187498)" fill="#ff9f00" fill-rule="evenodd" stroke="#ff9f00" stroke-width="5.04" stroke-linecap="square" stroke-linejoin="bevel" d="M0.72 0L51.12 20.16L0 37.44Z" sodipodi:nodetypes="cccc"/>
</svg>
